<?xml version="1.0" encoding="UTF-8"?>
<svg width="51px" height="307px" viewBox="0 0 51 307" version="1.1" xmlns="http://www.w3.org/2000/svg" xmlns:xlink="http://www.w3.org/1999/xlink">
    <!-- Generator: Sketch 46.2 (44496) - http://www.bohemiancoding.com/sketch -->
    <title>belt</title>
    <desc>Created with Sketch.</desc>
    <defs></defs>
    <g id="Page-1" stroke="none" stroke-width="1" fill="none" fill-rule="evenodd">
        <g id="belt" transform="translate(1.000000, 0.000000)">
            <polygon id="Fill-166" fill="#FFFFFF" points="4.914 306.221 43.479 306.221 43.479 0.842 4.914 0.842"></polygon>
            <polygon id="Stroke-183" stroke="#010101" stroke-width="2.231" points="4.4734 162.5821 44.2524 162.5821 44.2184 127.4111 47.9184 127.4951 47.9184 166.0981 47.8074 166.0981 47.8074 166.3711 0.8114 166.3711 0.8974 127.4971 4.4344 127.4121"></polygon>
            <polygon id="Fill-182" fill="#FFFFFF" points="4.4734 162.5821 44.2524 162.5821 44.2184 127.4111 47.9184 127.4951 47.9184 166.0981 47.8074 166.0981 47.8074 166.3711 0.8114 166.3711 0.8974 127.4971 4.4344 127.4121"></polygon>
            <path d="M24.2357,290.2 C22.5407,290.2 21.1687,291.572 21.1687,293.267 C21.1687,294.961 22.5407,296.334 24.2357,296.334 C25.9277,296.334 27.3027,294.961 27.3027,293.267 C27.3027,291.572 25.9277,290.2 24.2357,290.2" id="Fill-167" fill="#1D1D1B"></path>
            <path d="M24.3355,267.8588 C22.6405,267.8588 21.2685,269.2318 21.2685,270.9248 C21.2685,272.6198 22.6405,273.9928 24.3355,273.9928 C26.0275,273.9928 27.4025,272.6198 27.4025,270.9248 C27.4025,269.2318 26.0275,267.8588 24.3355,267.8588" id="Fill-168" fill="#1D1D1B"></path>
            <path d="M24.2085,245.0526 C22.5135,245.0526 21.1415,246.4266 21.1415,248.1206 C21.1415,249.8136 22.5135,251.1866 24.2085,251.1866 C25.9035,251.1866 27.2755,249.8136 27.2755,248.1206 C27.2755,246.4266 25.9035,245.0526 24.2085,245.0526" id="Fill-169" fill="#1D1D1B"></path>
            <path d="M24.3174,222.0935 C22.6224,222.0935 21.2524,223.4655 21.2524,225.1605 C21.2524,226.8545 22.6224,228.2265 24.3174,228.2265 C26.0124,228.2265 27.3844,226.8545 27.3844,225.1605 C27.3844,223.4655 26.0124,222.0935 24.3174,222.0935" id="Fill-170" fill="#1D1D1B"></path>
            <path d="M24.3946,198.8186 C22.6976,198.8186 21.3276,200.1926 21.3276,201.8856 C21.3276,203.5796 22.6976,204.9536 24.3946,204.9536 C26.0896,204.9536 27.4596,203.5796 27.4596,201.8856 C27.4596,200.1926 26.0896,198.8186 24.3946,198.8186" id="Fill-171" fill="#1D1D1B"></path>
            <path d="M24.4331,175.486 C22.7381,175.486 21.3661,176.86 21.3661,178.554 C21.3661,180.247 22.7381,181.621 24.4331,181.621 C26.1251,181.621 27.5001,180.247 27.5001,178.554 C27.5001,176.86 26.1251,175.486 24.4331,175.486" id="Fill-172" fill="#1D1D1B"></path>
            <path d="M24.5329,153.1451 C22.8379,153.1451 21.4659,154.5191 21.4659,156.2121 C21.4659,157.9061 22.8379,159.2801 24.5329,159.2801 C26.2249,159.2801 27.5999,157.9061 27.5999,156.2121 C27.5999,154.5191 26.2249,153.1451 24.5329,153.1451" id="Fill-173" fill="#1D1D1B"></path>
            <path d="M24.4059,130.339 C22.7109,130.339 21.3389,131.712 21.3389,133.406 C21.3389,135.1 22.7109,136.474 24.4059,136.474 C26.0979,136.474 27.4729,135.1 27.4729,133.406 C27.4729,131.712 26.0979,130.339 24.4059,130.339" id="Fill-174" fill="#1D1D1B"></path>
            <path d="M24.5148,107.3807 C22.8198,107.3807 21.4498,108.7517 21.4498,110.4467 C21.4498,112.1417 22.8198,113.5127 24.5148,113.5127 C26.2098,113.5127 27.5818,112.1417 27.5818,110.4467 C27.5818,108.7517 26.2098,107.3807 24.5148,107.3807" id="Fill-175" fill="#1D1D1B"></path>
            <path d="M24.4784,83.8921 C22.7834,83.8921 21.4114,85.2661 21.4114,86.9581 C21.4114,88.6531 22.7834,90.0271 24.4784,90.0271 C26.1704,90.0271 27.5434,88.6531 27.5434,86.9581 C27.5434,85.2661 26.1704,83.8921 24.4784,83.8921" id="Fill-176" fill="#1D1D1B"></path>
            <path d="M24.2131,60.1226 C22.5211,60.1226 21.1481,61.4926 21.1481,63.1876 C21.1481,64.8796 22.5211,66.2546 24.2131,66.2546 C25.9101,66.2546 27.2801,64.8796 27.2801,63.1876 C27.2801,61.4926 25.9101,60.1226 24.2131,60.1226" id="Fill-177" fill="#1D1D1B"></path>
            <path d="M24.3129,37.7809 C22.6209,37.7809 21.2479,39.1539 21.2479,40.8479 C21.2479,42.5409 22.6209,43.9129 24.3129,43.9129 C26.0079,43.9129 27.3819,42.5409 27.3819,40.8479 C27.3819,39.1539 26.0079,37.7809 24.3129,37.7809" id="Fill-178" fill="#1D1D1B"></path>
            <path d="M24.1881,14.974 C22.4961,14.974 21.1211,16.346 21.1211,18.041 C21.1211,19.736 22.4961,21.108 24.1881,21.108 C25.8831,21.108 27.2551,19.736 27.2551,18.041 C27.2551,16.346 25.8831,14.974 24.1881,14.974" id="Fill-179" fill="#1D1D1B"></path>
            <polygon id="Fill-184" fill="#010101" points="23.18 171.066 25.694 171.066 25.694 155.565 23.18 155.565"></polygon>
        </g>
    </g>
</svg>